# xmcd
#
# Track frame offsets:
# 150
# 19638
# 37530
# 60363
# 81543
# 98663
# 116745
# 132400
# 146895
# 162018
# 181818
# 217608
# 237643
# 261133
#
# Disc length: 3969 seconds
#
#
# Revision: 0
# Processed by: cddbd v1.5.1PL2 Copyright (c) Steve Scherf et al.
# Submitted via: FreeRIP 2.941 
#
DISCID=b40f7f0e
DTITLE=Lucinda Williams - Lu's Blues
DYEAR=1900
DGENRE=Blues
TTITLE0=Get Right With God
TTITLE1=Pancakes
TTITLE2=Happy Woman Blues
TTITLE3=Kool 2 Be 4-Gotten
TTITLE4=I Asked For Water (He Gave Me Gasolione)
TTITLE5=Joy
TTITLE6=Can't Let Go
TTITLE7=Nothing In Rambling
TTITLE8=Goin' Back Home
TTITLE9=Disgusted
TTITLE10=Come To Me Baby
TTITLE11=Well, Well, Well
TTITLE12=Down The Big Road Blues
TTITLE13=Hardtime Killing Floor Blues
EXTD=As Heard on BluesfestRadio.com
EXTT0=
EXTT1=
EXTT2=
EXTT3=
EXTT4=
EXTT5=
EXTT6=
EXTT7=
EXTT8=
EXTT9=
EXTT10=
EXTT11=
EXTT12=
EXTT13=
PLAYORDER=
